<svg xmlns="http://www.w3.org/2000/svg" width="57" height="57" viewBox="0 0 57 57">
  <g id="Group_29" data-name="Group 29" transform="translate(-589 -1050)">
    <rect id="Rectangle_14" data-name="Rectangle 14" width="57" height="57" transform="translate(589 1050)" fill="none"/>
    <path id="Icon_material-account-circle" data-name="Icon material-account-circle" d="M18,3A15,15,0,1,0,33,18,15.005,15.005,0,0,0,18,3Zm0,4.5A4.5,4.5,0,1,1,13.5,12,4.494,4.494,0,0,1,18,7.5Zm0,21.3a10.8,10.8,0,0,1-9-4.83c.045-2.985,6-4.62,9-4.62s8.955,1.635,9,4.62a10.8,10.8,0,0,1-9,4.83Z" transform="translate(600 1061)" fill="#19ca4b"/>
  </g>
</svg>
