<svg xmlns="http://www.w3.org/2000/svg" width="57" height="57" viewBox="0 0 57 57">
  <g id="Group_10" data-name="Group 10" transform="translate(-569 -315)">
    <rect id="Rectangle_6" data-name="Rectangle 6" width="57" height="57" transform="translate(569 315)" fill="none"/>
    <g id="Group_9" data-name="Group 9" transform="translate(2 -6)">
      <g id="Path_5" data-name="Path 5" transform="translate(579 333)" fill="none">
        <path d="M17,0A17,17,0,1,1,0,17,17,17,0,0,1,17,0Z" stroke="none"/>
        <path d="M 17 2 C 12.99336051940918 2 9.226520538330078 3.560270309448242 6.393400192260742 6.393400192260742 C 3.560270309448242 9.226520538330078 2 12.99336051940918 2 17 C 2 21.00664138793945 3.560270309448242 24.77347946166992 6.393400192260742 27.60659980773926 C 9.226520538330078 30.43972969055176 12.99336051940918 32 17 32 C 21.00664138793945 32 24.77347946166992 30.43972969055176 27.60659980773926 27.60659980773926 C 30.43972969055176 24.77347946166992 32 21.00664138793945 32 17 C 32 12.99336051940918 30.43972969055176 9.226520538330078 27.60659980773926 6.393400192260742 C 24.77347946166992 3.560270309448242 21.00664138793945 2 17 2 M 17 0 C 26.38883972167969 0 34 7.611160278320313 34 17 C 34 26.38883972167969 26.38883972167969 34 17 34 C 7.611160278320313 34 0 26.38883972167969 0 17 C 0 7.611160278320313 7.611160278320313 0 17 0 Z" stroke="none" fill="#19ca4b"/>
      </g>
      <g id="Group_8" data-name="Group 8" transform="translate(0 1)">
        <line id="Line_1" data-name="Line 1" y2="13" transform="translate(593.5 342.5)" fill="none" stroke="#19ca4b" stroke-linecap="round" stroke-width="2"/>
        <line id="Line_2" data-name="Line 2" y2="13" transform="translate(598.5 342.5)" fill="none" stroke="#19ca4b" stroke-linecap="round" stroke-width="2"/>
      </g>
    </g>
  </g>
</svg>
