<svg xmlns="http://www.w3.org/2000/svg" width="57" height="57" viewBox="0 0 57 57">
  <g id="Group_611" data-name="Group 611" transform="translate(-1405 -2791)">
    <rect id="Rectangle_423" data-name="Rectangle 423" width="57" height="57" transform="translate(1405 2791)" fill="#fff" opacity="0"/>
    <g id="Group_610" data-name="Group 610" transform="translate(1406.863 2808.265)">
      <path id="Icon_material-account-circle" data-name="Icon material-account-circle" d="M14.178,3A11.178,11.178,0,1,0,25.355,14.178,11.178,11.178,0,0,0,14.178,3Zm0,3.353a3.353,3.353,0,1,1-3.353,3.353A3.353,3.353,0,0,1,14.178,6.353Zm0,15.872a8.048,8.048,0,0,1-6.707-3.6c.034-2.224,4.471-3.443,6.707-3.443s6.673,1.218,6.707,3.443a8.048,8.048,0,0,1-6.707,3.6Z" transform="translate(-3 -3)" fill="#19ca4b"/>
      <rect id="Rectangle_440" data-name="Rectangle 440" width="26" height="4" rx="1" transform="translate(27.137 3.234)" fill="#19ca4b"/>
      <rect id="Rectangle_441" data-name="Rectangle 441" width="15" height="4" rx="1" transform="translate(26.841 9.234)" fill="#19ca4b"/>
    </g>
  </g>
</svg>
