<svg xmlns="http://www.w3.org/2000/svg" width="57" height="57" viewBox="0 0 57 57">
  <g id="Group_33" data-name="Group 33" transform="translate(-629 -1243)">
    <rect id="Rectangle_15" data-name="Rectangle 15" width="57" height="57" transform="translate(629 1243)" fill="none"/>
    <g id="Group_32" data-name="Group 32" transform="translate(100 34)">
      <g id="Group_31" data-name="Group 31" transform="translate(536 1227.937)">
        <path id="Path_6" data-name="Path 6" d="M18.585,31.226V29.393h.577a8.877,8.877,0,0,0,1.4-.1,2.765,2.765,0,0,0,1.131-.438,2.307,2.307,0,0,0,.769-.948,3.931,3.931,0,0,0,.287-1.643V16.03H8.547V26.259A3.949,3.949,0,0,0,8.834,27.9a2.286,2.286,0,0,0,.768.947,2.769,2.769,0,0,0,1.14.438,8.833,8.833,0,0,0,1.386.106H12.7v1.833H0V29.394H.555a8.776,8.776,0,0,0,1.4-.106,2.828,2.828,0,0,0,1.141-.438,2.225,2.225,0,0,0,.769-.947,4.091,4.091,0,0,0,.275-1.644V4.859a3.544,3.544,0,0,0-.287-1.545,2.236,2.236,0,0,0-.78-.906,2.808,2.808,0,0,0-1.142-.416A9.229,9.229,0,0,0,.554,1.9H0V.063H12.7V1.9h-.577A8.615,8.615,0,0,0,10.742,2,2.751,2.751,0,0,0,9.6,2.44a2.3,2.3,0,0,0-.768.949A3.925,3.925,0,0,0,8.547,5.03v8.823h14.2V5.03a3.946,3.946,0,0,0-.287-1.642,2.276,2.276,0,0,0-.768-.948A2.747,2.747,0,0,0,20.556,2a8.527,8.527,0,0,0-1.4-.107h-.577V.063h12.7V1.9h-.553a8.536,8.536,0,0,0-1.4.107A2.833,2.833,0,0,0,28.2,2.44a2.2,2.2,0,0,0-.768.948,4.04,4.04,0,0,0-.277,1.642V26.472a3.549,3.549,0,0,0,.287,1.545,2.057,2.057,0,0,0,.779.884,3,3,0,0,0,1.141.4,9.415,9.415,0,0,0,1.373.1h.556v1.833h-12.7Z" fill="#19ca4b"/>
      </g>
      <text id="_1" data-name="1" transform="translate(567 1235)" fill="#19ca4b" font-size="20" font-family="NunitoSans-Regular, Nunito Sans"><tspan x="0" y="0">1</tspan></text>
    </g>
  </g>
</svg>
