<svg xmlns="http://www.w3.org/2000/svg" width="34" height="34" viewBox="0 0 34 34"><defs><style>.a,.b{fill:none;}.b{stroke:#19ca4b;stroke-linecap:round;stroke-width:2px;}.c,.d{stroke:none;}.d{fill:#19ca4b;}</style></defs><g transform="translate(-579 -333)"><g class="a" transform="translate(579 333)"><path class="c" d="M17,0A17,17,0,1,1,0,17,17,17,0,0,1,17,0Z"/><path class="d" d="M 17 2 C 12.99336051940918 2 9.226520538330078 3.560270309448242 6.393400192260742 6.393400192260742 C 3.560270309448242 9.226520538330078 2 12.99336051940918 2 17 C 2 21.00664138793945 3.560270309448242 24.77347946166992 6.393400192260742 27.60659980773926 C 9.226520538330078 30.43972969055176 12.99336051940918 32 17 32 C 21.00664138793945 32 24.77347946166992 30.43972969055176 27.60659980773926 27.60659980773926 C 30.43972969055176 24.77347946166992 32 21.00664138793945 32 17 C 32 12.99336051940918 30.43972969055176 9.226520538330078 27.60659980773926 6.393400192260742 C 24.77347946166992 3.560270309448242 21.00664138793945 2 17 2 M 17 0 C 26.38883972167969 0 34 7.611160278320313 34 17 C 34 26.38883972167969 26.38883972167969 34 17 34 C 7.611160278320313 34 0 26.38883972167969 0 17 C 0 7.611160278320313 7.611160278320313 0 17 0 Z"/></g><g transform="translate(0 1)"><line class="b" y2="13" transform="translate(593.5 342.5)"/><line class="b" y2="13" transform="translate(598.5 342.5)"/></g></g></svg>