<svg xmlns="http://www.w3.org/2000/svg" width="35" height="35" viewBox="0 0 35 35"><g id="Group_10" data-name="Group 10" transform="translate(-569 -315)"><rect id="Rectangle_6" width="35" height="35" fill="none" data-name="Rectangle 6" transform="translate(569 315)"/><g id="Group_9" data-name="Group 9" transform="translate(-10 -18)"><g id="Path_5" fill="none" data-name="Path 5"><path stroke="none" d="M17.5,0A17.5,17.5,0,1,1,0,17.5,17.5,17.5,0,0,1,17.5,0Z" transform="translate(579 333)"/><path fill="#19ca4b" stroke="none" d="M 17.5 2 C 13.35980033874512 2 9.467409133911133 3.612279891967773 6.539850234985352 6.539850234985352 C 3.612279891967773 9.467409133911133 2 13.35980033874512 2 17.5 C 2 21.64019966125488 3.612279891967773 25.53258895874023 6.539850234985352 28.46014976501465 C 9.467409133911133 31.38772010803223 13.35980033874512 33 17.5 33 C 21.64019966125488 33 25.53258895874023 31.38772010803223 28.46014976501465 28.46014976501465 C 31.38772010803223 25.53258895874023 33 21.64019966125488 33 17.5 C 33 13.35980033874512 31.38772010803223 9.467409133911133 28.46014976501465 6.539850234985352 C 25.53258895874023 3.612279891967773 21.64019966125488 2 17.5 2 M 17.5 0 C 27.16497993469238 0 35 7.835020065307617 35 17.5 C 35 27.16497993469238 27.16497993469238 35 17.5 35 C 7.835020065307617 35 0 27.16497993469238 0 17.5 C 0 7.835020065307617 7.835020065307617 0 17.5 0 Z" transform="translate(579 333)"/></g><g id="Group_8" data-name="Group 8" transform="translate(593.926 343.809)"><line id="Line_1" y2="13.382" fill="none" stroke="#19ca4b" stroke-linecap="round" stroke-width="2" data-name="Line 1"/><line id="Line_2" y2="13.382" fill="none" stroke="#19ca4b" stroke-linecap="round" stroke-width="2" data-name="Line 2" transform="translate(5.147)"/></g></g></g></svg>