<svg xmlns="http://www.w3.org/2000/svg" width="18" height="18" viewBox="0 0 18 18"><g id="Group_906" data-name="Group 906" transform="translate(-8502 -285)"><rect id="Rectangle_43" width="18" height="18" fill="#fff" data-name="Rectangle 43" opacity="0" transform="translate(8502 285)"/><g id="radiation" transform="translate(8504 287)"><path id="Path_23" fill="#fff" d="M131.615,268.508a.321.321,0,0,0-.438-.117,1.416,1.416,0,0,1-1.413,0,.321.321,0,0,0-.439.117l-2.161,3.743a.321.321,0,0,0,.118.438,6.41,6.41,0,0,0,3.137.854h.057a6.371,6.371,0,0,0,3.183-.855.321.321,0,0,0,.117-.438Zm-1.14,4.394h-.051a5.77,5.77,0,0,1-2.539-.616l1.848-3.2a2.059,2.059,0,0,0,1.474,0l1.848,3.2A5.725,5.725,0,0,1,130.475,272.9Z" data-name="Path 23" transform="translate(-123.043 -259.74)"/><path id="Path_24" fill="#fff" d="M37.718,63.6a1.419,1.419,0,0,1,.706-1.224.321.321,0,0,0,.117-.438L36.38,58.2a.321.321,0,0,0-.438-.117A6.373,6.373,0,0,0,32.754,63.6a.321.321,0,0,0,.321.321H37.4A.321.321,0,0,0,37.718,63.6ZM33.4,63.282A5.729,5.729,0,0,1,35.989,58.8l1.849,3.2a2.066,2.066,0,0,0-.736,1.276Z" data-name="Path 24" transform="translate(-31.703 -56.175)"/><path id="Path_25" fill="#fff" d="M253.56,60.482A6.37,6.37,0,0,0,251.2,58.1a.321.321,0,0,0-.438.117l-2.16,3.742a.321.321,0,0,0,.117.438,1.419,1.419,0,0,1,.707,1.224.321.321,0,0,0,.321.321h4.322a.321.321,0,0,0,.321-.321A6.409,6.409,0,0,0,253.56,60.482ZM250.041,63.3a2.066,2.066,0,0,0-.737-1.277l1.848-3.2a5.729,5.729,0,0,1,2.585,4.477h-3.7Z" data-name="Path 25" transform="translate(-240.585 -56.198)"/><path id="Path_26" fill="#fff" d="M197.811,198.893a1.082,1.082,0,1,0,1.082-1.082A1.083,1.083,0,0,0,197.811,198.893Zm1.082-.44a.44.44,0,1,1-.44.44A.441.441,0,0,1,198.893,198.453Z" data-name="Path 26" transform="translate(-191.466 -191.466)"/><path id="Path_27" fill="#fff" d="M12.679,2.175a7.427,7.427,0,0,0-10.5,10.5,7.427,7.427,0,0,0,10.5-10.5ZM7.427,14.213a6.786,6.786,0,1,1,6.786-6.786A6.793,6.793,0,0,1,7.427,14.213Z" data-name="Path 27"/></g></g></svg>