<svg xmlns="http://www.w3.org/2000/svg" width="18" height="18" viewBox="0 0 18 18"><g id="Group_909" data-name="Group 909" transform="translate(-8457 -197)"><rect id="Rectangle_46" width="18" height="18" fill="#fff" data-name="Rectangle 46" opacity="0" transform="translate(8457 197)"/><g id="delete" transform="translate(8460.003 199.001)"><path id="Path_33" fill="#fff" d="M222.73,154.7a.332.332,0,0,0-.332.332V161.3a.332.332,0,1,0,.663,0v-6.269A.332.332,0,0,0,222.73,154.7Zm0,0" data-name="Path 33" transform="translate(-215.025 -149.573)"/><path id="Path_34" fill="#fff" d="M104.73,154.7a.332.332,0,0,0-.332.332V161.3a.332.332,0,1,0,.663,0v-6.269A.332.332,0,0,0,104.73,154.7Zm0,0" data-name="Path 34" transform="translate(-100.939 -149.573)"/><path id="Path_35" fill="#fff" d="M.939,4.215v8.172a1.83,1.83,0,0,0,.486,1.262,1.633,1.633,0,0,0,1.185.512H8.886a1.633,1.633,0,0,0,1.185-.512,1.83,1.83,0,0,0,.486-1.262V4.215a1.267,1.267,0,0,0-.325-2.492h-1.7V1.309A1.3,1.3,0,0,0,7.22,0H4.275a1.3,1.3,0,0,0-1.313,1.31v.415h-1.7A1.267,1.267,0,0,0,.939,4.215ZM8.886,13.5H2.61A1.05,1.05,0,0,1,1.6,12.386V4.244H9.894v8.143A1.05,1.05,0,0,1,8.886,13.5ZM3.625,1.309a.639.639,0,0,1,.65-.647H7.221a.639.639,0,0,1,.65.647v.415H3.625ZM1.264,2.387h8.968a.6.6,0,0,1,0,1.194H1.264a.6.6,0,1,1,0-1.194Zm0,0" data-name="Path 35" transform="translate(0 0)"/><path id="Path_36" fill="#fff" d="M163.73,154.7a.332.332,0,0,0-.332.332V161.3a.332.332,0,1,0,.663,0v-6.269A.332.332,0,0,0,163.73,154.7Zm0,0" data-name="Path 36" transform="translate(-157.982 -149.573)"/></g></g></svg>