<svg xmlns="http://www.w3.org/2000/svg" width="126" height="23.56" viewBox="0 0 126 23.56">
  <g id="Group_1051" data-name="Group 1051" transform="translate(4052 2678)">
    <g id="Group_730" data-name="Group 730" transform="translate(-4052 -2678)">
      <path id="XMLID_128_" d="M202.55,255.112v3.5a6.357,6.357,0,0,1-6.349,6.349H178.99v-5.822h3.862V261.1H196.2a2.489,2.489,0,0,0,2.487-2.487v-3.5H186.86V251.25h15.69Z" transform="translate(-178.99 -241.401)" fill="#fff"/>
      <path id="XMLID_148_" d="M202.55,154.01V152.8a6.357,6.357,0,0,0-6.349-6.349H178.99v15.54h3.862V150.312H196.2a2.489,2.489,0,0,1,2.487,2.487v1.211Z" transform="translate(-178.99 -146.45)" fill="#19ca4b"/>
    </g>
    <text id="Get_Flutter" data-name="Get Flutter" transform="translate(-4018 -2660)" fill="#fff" font-size="17" font-family="Montserrat-Regular, Montserrat"><tspan x="0" y="0">Get </tspan><tspan y="0" fill="#19ca4b">Flutter</tspan></text>
  </g>
</svg>
