<svg xmlns="http://www.w3.org/2000/svg" width="18" height="18" viewBox="0 0 18 18"><g id="G_" data-name="G+" transform="translate(-48 -332)"><rect id="Rectangle_52" width="18" height="18" fill="none" data-name="Rectangle 52" transform="translate(48 332)"/><path id="Icon_awesome-google-plus-g" fill="#fff" d="M8.468,7.835a3.3,3.3,0,0,1,.064.648,3.591,3.591,0,0,1-3.739,3.8,3.893,3.893,0,1,1,0-7.785A3.718,3.718,0,0,1,7.4,5.52L6.343,6.534a2.186,2.186,0,0,0-1.551-.6,2.459,2.459,0,0,0,0,4.918A2.108,2.108,0,0,0,7,9.173H4.793V7.835H8.468Zm3.759.131V6.836H11.091v1.13H9.961V9.1h1.13v1.13h1.135V9.1h1.13V7.966h-1.13Z" data-name="Icon awesome-google-plus-g" transform="translate(50.1 332.5)"/></g></svg>