<svg xmlns="http://www.w3.org/2000/svg" width="18" height="18" viewBox="0 0 18 18"><g id="Group_910" data-name="Group 910" transform="translate(-8407 -351)"><rect id="Rectangle_47" width="18" height="18" fill="#fff" data-name="Rectangle 47" opacity="0" transform="translate(8407 351)"/><g id="remove-user" transform="translate(8409 353)"><g id="Group_788" data-name="Group 788" transform="translate(0)"><g id="Group_787" data-name="Group 787"><path id="Path_37" fill="#3880ff" d="M11.742,8.082a7.46,7.46,0,0,0-2.021-1.03,3.917,3.917,0,1,0-4.691,0A7.492,7.492,0,0,0,.038,12.636a1.75,1.75,0,0,0,1.711,2.111H7.69a.576.576,0,1,0,0-1.152H1.748a.585.585,0,0,1-.461-.219.6.6,0,0,1-.122-.5,6.364,6.364,0,0,1,6.055-5.04l.153,0q.077,0,.154,0A6.292,6.292,0,0,1,11.07,9.017a.576.576,0,1,0,.672-.936Zm-4.228-1.4h-.28a2.765,2.765,0,1,1,.28,0Z" data-name="Path 37" transform="translate(0)"/></g></g><g id="Group_790" data-name="Group 790" transform="translate(9.851 9.85)"><g id="Group_789" data-name="Group 789"><path id="Path_38" fill="#3880ff" d="M345.263,344.447l1.465-1.465a.576.576,0,0,0-.815-.815l-1.465,1.465-1.465-1.465a.576.576,0,1,0-.815.815l1.465,1.465-1.465,1.465a.576.576,0,0,0,.815.815l1.465-1.465,1.465,1.465a.576.576,0,0,0,.815-.815Z" data-name="Path 38" transform="translate(-342 -341.999)"/></g></g></g></g></svg>