<svg xmlns="http://www.w3.org/2000/svg" width="18" height="18" viewBox="0 0 18 18"><g id="pinterest" transform="translate(-124 -312)"><rect id="Rectangle_57" width="18" height="18" fill="none" data-name="Rectangle 57" transform="translate(124 312)"/><path id="Icon_awesome-pinterest" fill="#fff" d="M14.424,7.774a7.213,7.213,0,0,1-9.346,6.889,8.107,8.107,0,0,0,.9-1.89c.087-.337.448-1.716.448-1.716a1.932,1.932,0,0,0,1.652.829c2.175,0,3.743-2,3.743-4.487A4.233,4.233,0,0,0,7.369,3.235C4.257,3.235,2.6,5.323,2.6,7.6a3.236,3.236,0,0,0,1.463,2.795c.137.064.209.035.241-.1.023-.1.145-.59.2-.817a.216.216,0,0,0-.049-.206,2.84,2.84,0,0,1-.532-1.646A3.121,3.121,0,0,1,7.183,4.5,2.847,2.847,0,0,1,10.2,7.434c0,1.951-.986,3.3-2.268,3.3a1.046,1.046,0,0,1-1.067-1.3,14.492,14.492,0,0,0,.6-2.4.906.906,0,0,0-.913-1.015c-.724,0-1.306.747-1.306,1.751a2.6,2.6,0,0,0,.215,1.07s-.712,3.019-.843,3.583a6.981,6.981,0,0,0-.026,2.071,7.213,7.213,0,1,1,9.841-6.718Z" data-name="Icon awesome-pinterest" transform="translate(126.288 313)"/></g></svg>