<svg xmlns="http://www.w3.org/2000/svg" width="18" height="18" viewBox="0 0 18 18"><g id="Group_901" data-name="Group 901" transform="translate(-8411 -424)"><path id="Path_18" fill="none" d="M0,0H18V18H0Z" data-name="Path 18" transform="translate(8411 424)"/><g id="floppy-disk" transform="translate(8412.998 426)"><g id="Group_767" data-name="Group 767"><g id="Group_766" data-name="Group 766"><path id="Path_16" fill="#fff" d="M13.716,3.361,10.5.149h0A.509.509,0,0,0,10.145,0H.507A.507.507,0,0,0,0,.507v12.85a.507.507,0,0,0,.507.507h12.85a.507.507,0,0,0,.507-.507V3.72A.507.507,0,0,0,13.716,3.361ZM4.227,1.014h5.41v3H4.227ZM10.844,12.85H3.021V8.582h7.823Zm2.006,0h-.992V8.075a.507.507,0,0,0-.507-.507H2.513a.507.507,0,0,0-.507.507V12.85H1.014V1.014h2.2V4.523a.507.507,0,0,0,.507.507h6.425a.507.507,0,0,0,.507-.507V1.732l2.2,2.2Z" data-name="Path 16"/></g></g><g id="Group_769" data-name="Group 769" transform="translate(7.874 1.49)"><g id="Group_768" data-name="Group 768"><path id="Path_17" fill="#fff" d="M291.289,55.015a.507.507,0,0,0-.507.507v1.036a.507.507,0,1,0,1.014,0V55.522A.507.507,0,0,0,291.289,55.015Z" data-name="Path 17" transform="translate(-290.782 -55.015)"/></g></g></g></g></svg>