<svg xmlns="http://www.w3.org/2000/svg" width="18" height="18" viewBox="0 0 18 18"><g id="slack" transform="translate(-165 -399)"><rect id="Rectangle_56" width="18" height="18" fill="none" data-name="Rectangle 56" transform="translate(165 399)"/><path id="Icon_awesome-slack-hash" fill="#fff" d="M11.9,8.611A.971.971,0,0,0,10.673,8l-1.211.4L8.654,6l1.211-.4a.967.967,0,1,0-.613-1.835l-1.211.4L7.622,2.915a.97.97,0,0,0-1.84.613L6.2,4.781,3.71,5.613,3.291,4.36a.97.97,0,0,0-1.84.613L1.87,6.227l-1.208.4A.969.969,0,0,0,.049,7.851a1,1,0,0,0,.9.656c.181.027.32-.043,1.539-.448l.808,2.4-1.211.4a.972.972,0,0,0-.613,1.224,1,1,0,0,0,.9.656c.181.027.32-.043,1.539-.448l.419,1.253a.991.991,0,0,0,1.227.611.969.969,0,0,0,.613-1.224L5.742,11.68l2.5-.835L8.657,12.1a.991.991,0,0,0,1.227.611.969.969,0,0,0,.613-1.224l-.419-1.253,1.211-.4A.961.961,0,0,0,11.9,8.611ZM5.123,9.87,4.315,7.464l2.493-.835.808,2.405Z" data-name="Icon awesome-slack-hash" transform="translate(167.999 399.745)"/></g></svg>