<svg xmlns="http://www.w3.org/2000/svg" width="18" height="18" viewBox="0 0 18 18"><g id="Group_912" data-name="Group 912" transform="translate(-169 -344)"><rect id="Rectangle_51" width="18" height="18" fill="none" data-name="Rectangle 51" transform="translate(169 344)"/><path id="Icon_awesome-twitter" fill="#fff" d="M12.4,6.177c.009.123.009.245.009.368A8,8,0,0,1,4.348,14.6,8,8,0,0,1,0,13.331a5.858,5.858,0,0,0,.684.035A5.671,5.671,0,0,0,4.2,12.156a2.837,2.837,0,0,1-2.647-1.964,3.571,3.571,0,0,0,.535.044,3,3,0,0,0,.745-.1A2.832,2.832,0,0,1,.561,7.361V7.326a2.852,2.852,0,0,0,1.28.359A2.836,2.836,0,0,1,.964,3.9,8.049,8.049,0,0,0,6.8,6.861a3.2,3.2,0,0,1-.07-.649,2.834,2.834,0,0,1,4.9-1.937,5.575,5.575,0,0,0,1.8-.684,2.824,2.824,0,0,1-1.245,1.56,5.676,5.676,0,0,0,1.631-.438A6.087,6.087,0,0,1,12.4,6.177Z" data-name="Icon awesome-twitter" transform="translate(171.4 344)"/></g></svg>