<svg xmlns="http://www.w3.org/2000/svg" width="35" height="35" viewBox="0 0 35 35"><g id="Group_33" data-name="Group 33" transform="translate(-629 -1243)"><rect id="Rectangle_15" width="35" height="35" fill="none" data-name="Rectangle 15" transform="translate(629 1243)"/><g id="Group_32" data-name="Group 32" transform="translate(93 28)"><g id="Group_31" data-name="Group 31" transform="translate(536 1225.302)"><path id="Path_6" fill="#19ca4b" d="M14.729,24.76V23.307h.457a7.035,7.035,0,0,0,1.106-.083,2.191,2.191,0,0,0,.9-.347,1.828,1.828,0,0,0,.609-.751,3.116,3.116,0,0,0,.227-1.3V12.717H6.774v8.107A3.13,3.13,0,0,0,7,22.126a1.812,1.812,0,0,0,.609.751,2.194,2.194,0,0,0,.9.347,7,7,0,0,0,1.1.084h.457v1.453H0V23.308H.44a6.955,6.955,0,0,0,1.106-.084,2.241,2.241,0,0,0,.9-.347,1.763,1.763,0,0,0,.609-.751,3.242,3.242,0,0,0,.218-1.3V3.864A2.809,2.809,0,0,0,3.05,2.639a1.772,1.772,0,0,0-.618-.718,2.225,2.225,0,0,0-.905-.33A7.314,7.314,0,0,0,.439,1.516H0V.063H10.069V1.516H9.611a6.828,6.828,0,0,0-1.1.085,2.18,2.18,0,0,0-.9.346A1.824,1.824,0,0,0,7,2.7,3.11,3.11,0,0,0,6.774,4v6.992h11.25V4A3.127,3.127,0,0,0,17.8,2.7a1.8,1.8,0,0,0-.609-.751,2.177,2.177,0,0,0-.9-.346,6.758,6.758,0,0,0-1.106-.085h-.457V.063H24.8V1.516h-.438a6.765,6.765,0,0,0-1.106.085,2.245,2.245,0,0,0-.9.346,1.744,1.744,0,0,0-.609.751,3.2,3.2,0,0,0-.22,1.3V20.992a2.813,2.813,0,0,0,.227,1.224,1.63,1.63,0,0,0,.617.7,2.376,2.376,0,0,0,.9.314,7.461,7.461,0,0,0,1.088.076H24.8V24.76Z" data-name="Path 6" transform="translate(0 -0.063)"/></g><text id="_1" fill="#19ca4b" data-name="1" font-family="NunitoSans-Regular, Nunito Sans" font-size="15" transform="translate(562 1230)"><tspan x="0" y="0">1</tspan></text></g></g></svg>