<svg xmlns="http://www.w3.org/2000/svg" width="18" height="18" viewBox="0 0 18 18"><g id="Group_905" data-name="Group 905" transform="translate(-8441 -312)"><rect id="Rectangle_42" width="18" height="18" fill="#fff" data-name="Rectangle 42" opacity="0" transform="translate(8441 312)"/><g id="caution-sign" transform="translate(8442.001 295.283)"><path id="Path_21" fill="#fff" d="M16.072,31.244,9.2,19.34a1.246,1.246,0,0,0-2.158,0L.166,31.244a1.246,1.246,0,0,0,1.079,1.869H14.993a1.246,1.246,0,0,0,1.079-1.869Zm-14.827.623,6.874-11.9,6.874,11.9Z" data-name="Path 21" transform="translate(0 0)"/><path id="Path_22" fill="#fff" d="M147.217,112.875l.357,4.09a.507.507,0,0,0,1.01,0l.357-4.09a.93.93,0,0,0,0-.151.866.866,0,1,0-1.725.151Z" data-name="Path 22" transform="translate(-139.96 -88.623)"/><circle id="Ellipse_2" cx=".715" cy=".715" r=".715" fill="#fff" data-name="Ellipse 2" transform="translate(7.405 29.056)"/></g></g></svg>