<svg xmlns="http://www.w3.org/2000/svg" width="18" height="18" viewBox="0 0 18 18"><g id="youtube" transform="translate(-163 -325)"><rect id="Rectangle_55" width="18" height="18" fill="none" data-name="Rectangle 55" transform="translate(163 325)"/><path id="Icon_awesome-youtube" fill="#fff" d="M14.6,6.022a1.739,1.739,0,0,0-1.223-1.231A41.086,41.086,0,0,0,7.968,4.5a41.086,41.086,0,0,0-5.406.291A1.739,1.739,0,0,0,1.339,6.022,18.238,18.238,0,0,0,1.05,9.374a18.238,18.238,0,0,0,.289,3.352,1.713,1.713,0,0,0,1.223,1.212,41.086,41.086,0,0,0,5.406.291,41.086,41.086,0,0,0,5.406-.291A1.713,1.713,0,0,0,14.6,12.726a18.238,18.238,0,0,0,.289-3.352A18.238,18.238,0,0,0,14.6,6.022ZM6.553,11.431V7.317l3.616,2.057L6.553,11.431Z" data-name="Icon awesome-youtube" transform="translate(164.444 324.781)"/></g></svg>