<svg xmlns="http://www.w3.org/2000/svg" width="18" height="18" viewBox="0 0 18 18"><g id="Dribble" transform="translate(-146 -305)"><rect id="Rectangle_54" width="18" height="18" fill="none" data-name="Rectangle 54" transform="translate(146 305)"/><path id="Icon_awesome-dribbble" fill="#fff" d="M6.929.563A6.367,6.367,0,1,0,13.3,6.929,6.374,6.374,0,0,0,6.929.563ZM11.139,3.5a5.412,5.412,0,0,1,1.228,3.388A12.709,12.709,0,0,0,8.58,6.711c-.148-.36-.287-.678-.478-1.068A7.244,7.244,0,0,0,11.139,3.5Zm-.6-.629a6.14,6.14,0,0,1-2.85,1.964A29.029,29.029,0,0,0,5.655,1.651,5.424,5.424,0,0,1,10.535,2.87ZM4.617,2.016A34.7,34.7,0,0,1,6.634,5.161a20.285,20.285,0,0,1-5.028.663A5.458,5.458,0,0,1,4.617,2.016ZM1.491,6.938c0-.056,0-.111,0-.166A20.061,20.061,0,0,0,7.083,6c.156.3.3.614.441.923a8.424,8.424,0,0,0-4.635,3.653A5.417,5.417,0,0,1,1.491,6.938Zm2.1,4.29a7.649,7.649,0,0,1,4.3-3.408,22.606,22.606,0,0,1,1.16,4.124,5.427,5.427,0,0,1-5.462-.716Zm6.377.218A23.472,23.472,0,0,0,8.912,7.569,7.982,7.982,0,0,1,12.3,7.8a5.448,5.448,0,0,1-2.331,3.645Z" data-name="Icon awesome-dribbble" transform="translate(147.725 307)"/></g></svg>