<svg xmlns="http://www.w3.org/2000/svg" width="18" height="18" viewBox="0 0 18 18"><g id="Group_907" data-name="Group 907" transform="translate(-8408 -197)"><rect id="Rectangle_44" width="18" height="18" fill="#fff" data-name="Rectangle 44" opacity="0" transform="translate(8408 197)"/><g id="round-information-button" transform="translate(8410 199)"><g id="Group_779" data-name="Group 779"><path id="Path_28" fill="#fff" d="M7.1,0a7.1,7.1,0,1,0,7.1,7.1A7.106,7.106,0,0,0,7.1,0Zm0,13.266A6.167,6.167,0,1,1,13.266,7.1,6.174,6.174,0,0,1,7.1,13.266Z" data-name="Path 28"/><path id="Path_29" fill="#fff" d="M179.426,92.233a.621.621,0,1,0-.621-.621A.621.621,0,0,0,179.426,92.233Z" data-name="Path 29" transform="translate(-172.459 -87.763)"/><path id="Path_30" fill="#fff" d="M164.976,146.351h-.389v-4.437a.466.466,0,0,0-.465-.466h-.855a.465.465,0,0,0,0,.931h.39v3.972h-.39a.465.465,0,0,0,0,.931h1.71a.465.465,0,1,0,0-.931Z" data-name="Path 30" transform="translate(-157.023 -136.428)"/></g></g></g></svg>