<svg xmlns="http://www.w3.org/2000/svg" width="18" height="18" viewBox="0 0 18 18"><g id="Group_908" data-name="Group 908" transform="translate(-8428 -197)"><rect id="Rectangle_45" width="18" height="18" fill="#222428" data-name="Rectangle 45" opacity="0" transform="translate(8428 197)"/><g id="picture" transform="translate(8430 199)"><g id="Group_782" data-name="Group 782"><path id="Path_31" fill="#222428" d="M0,13.329A1.573,1.573,0,0,0,1.571,14.9H13.329A1.573,1.573,0,0,0,14.9,13.329V1.571A1.573,1.573,0,0,0,13.329,0H1.571A1.573,1.573,0,0,0,0,1.571Zm13.329.825H1.571a.828.828,0,0,1-.825-.825V11.366L3.571,8.54l2.414,2.414a.371.371,0,0,0,.527,0l4.36-4.36,3.282,3.282v3.453A.828.828,0,0,1,13.329,14.155ZM1.571.746H13.329a.828.828,0,0,1,.825.825V8.82L11.134,5.8a.371.371,0,0,0-.527,0l-4.36,4.36L3.833,7.749a.371.371,0,0,0-.527,0L.746,10.309V1.571A.828.828,0,0,1,1.571.746Z" data-name="Path 31"/><path id="Path_32" fill="#222428" d="M91.3,75.294a1.9,1.9,0,1,0-1.9-1.9A1.9,1.9,0,0,0,91.3,75.294Zm0-3.048A1.151,1.151,0,1,1,90.146,73.4,1.152,1.152,0,0,1,91.3,72.246Z" data-name="Path 32" transform="translate(-86.678 -69.323)"/></g></g></g></svg>