<svg xmlns="http://www.w3.org/2000/svg" width="18" height="18" viewBox="0 0 18 18"><g id="linkedin" transform="translate(-160 -329)"><rect id="Rectangle_53" width="18" height="18" fill="none" data-name="Rectangle 53" transform="translate(160 329)"/><path id="Icon_awesome-linkedin-in" fill="#fff" d="M2.631,11.754H.194V3.907H2.631ZM1.411,2.836A1.418,1.418,0,1,1,2.822,1.412,1.423,1.423,0,0,1,1.411,2.836Zm10.34,8.917H9.319V7.934c0-.91-.018-2.078-1.267-2.078-1.267,0-1.461.989-1.461,2.012v3.885H4.157V3.907H6.494v1.07h.034A2.56,2.56,0,0,1,8.834,3.71c2.466,0,2.919,1.624,2.919,3.733v4.31Z" data-name="Icon awesome-linkedin-in" transform="translate(162.95 332.25)"/></g></svg>