<svg xmlns="http://www.w3.org/2000/svg" width="18" height="18" viewBox="0 0 18 18"><g id="Group_903" data-name="Group 903" transform="translate(-8014 106)"><g id="settings" transform="translate(8014 -106)"><g id="Group_762" data-name="Group 762"><g id="Group_761" data-name="Group 761"><path id="Path_14" fill="#fff" d="M16.242,6.858c-.32-.048-.648-.094-.975-.136a.1.1,0,0,1-.082-.069,6.9,6.9,0,0,0-.652-1.573.1.1,0,0,1,.009-.107c.2-.262.4-.526.594-.787a.9.9,0,0,0-.088-1.159L13.973,1.952a.9.9,0,0,0-1.159-.088c-.26.192-.524.392-.787.594a.1.1,0,0,1-.107.009,6.9,6.9,0,0,0-1.573-.652.1.1,0,0,1-.069-.082c-.043-.328-.089-.656-.136-.975A.9.9,0,0,0,9.26,0H7.74a.9.9,0,0,0-.882.758c-.048.319-.094.647-.136.975a.1.1,0,0,1-.069.082,6.9,6.9,0,0,0-1.573.652.1.1,0,0,1-.107-.009c-.262-.2-.527-.4-.787-.594a.9.9,0,0,0-1.159.088L1.952,3.027a.9.9,0,0,0-.088,1.159c.193.261.392.525.594.787a.1.1,0,0,1,.009.107,6.9,6.9,0,0,0-.652,1.573.1.1,0,0,1-.082.069c-.327.043-.656.089-.975.136A.9.9,0,0,0,0,7.74V9.26a.9.9,0,0,0,.758.882c.32.048.648.094.975.136a.1.1,0,0,1,.082.069,6.9,6.9,0,0,0,.652,1.573.1.1,0,0,1-.009.107c-.2.262-.4.527-.594.787a.9.9,0,0,0,.088,1.159l1.075,1.075a.9.9,0,0,0,1.159.088c.26-.192.524-.392.787-.594a.1.1,0,0,1,.107-.009,6.9,6.9,0,0,0,1.573.652.1.1,0,0,1,.069.082c.043.328.089.656.136.975A.9.9,0,0,0,7.74,17H9.26a.9.9,0,0,0,.882-.758c.048-.32.094-.648.136-.975a.1.1,0,0,1,.069-.082,6.9,6.9,0,0,0,1.573-.652.1.1,0,0,1,.107.009c.262.2.527.4.787.594a.9.9,0,0,0,1.159-.088l1.075-1.075a.9.9,0,0,0,.088-1.159c-.192-.26-.392-.525-.594-.787a.1.1,0,0,1-.009-.107,6.9,6.9,0,0,0,.652-1.573.1.1,0,0,1,.082-.069c.327-.043.656-.089.975-.136A.9.9,0,0,0,17,9.26V7.74A.9.9,0,0,0,16.242,6.858Zm-.036,2.4a.1.1,0,0,1-.081.1c-.315.047-.638.092-.961.134a.889.889,0,0,0-.745.645,6.108,6.108,0,0,1-.577,1.392.889.889,0,0,0,.07.983c.2.258.4.519.585.775a.1.1,0,0,1-.011.126l-1.075,1.075a.1.1,0,0,1-.126.011c-.256-.189-.516-.386-.775-.585a.889.889,0,0,0-.983-.07,6.109,6.109,0,0,1-1.392.577.889.889,0,0,0-.645.745c-.042.323-.087.646-.134.961a.1.1,0,0,1-.1.081H7.74a.1.1,0,0,1-.1-.081c-.047-.314-.092-.637-.134-.961a.889.889,0,0,0-.645-.745,6.106,6.106,0,0,1-1.392-.577.889.889,0,0,0-.983.07c-.258.2-.519.4-.775.585a.1.1,0,0,1-.126-.011L2.514,13.412a.1.1,0,0,1-.011-.126c.189-.256.386-.517.585-.775a.889.889,0,0,0,.07-.983,6.107,6.107,0,0,1-.577-1.392.889.889,0,0,0-.745-.645C1.514,9.449,1.19,9.4.875,9.357a.1.1,0,0,1-.081-.1V7.74a.1.1,0,0,1,.081-.1c.315-.047.638-.092.961-.134a.888.888,0,0,0,.745-.645,6.1,6.1,0,0,1,.577-1.392.889.889,0,0,0-.07-.983c-.2-.258-.395-.518-.585-.775a.1.1,0,0,1,.011-.126L3.588,2.514A.1.1,0,0,1,3.714,2.5c.256.189.516.386.775.585a.889.889,0,0,0,.983.07,6.107,6.107,0,0,1,1.392-.577.889.889,0,0,0,.645-.745c.042-.323.087-.646.134-.961a.1.1,0,0,1,.1-.081H9.26a.1.1,0,0,1,.1.081c.047.314.092.637.134.961a.889.889,0,0,0,.645.745,6.109,6.109,0,0,1,1.392.577.889.889,0,0,0,.983-.07c.258-.2.519-.4.775-.585a.1.1,0,0,1,.126.011l1.075,1.075a.1.1,0,0,1,.011.126c-.189.256-.386.517-.585.775a.889.889,0,0,0-.07.983,6.107,6.107,0,0,1,.577,1.392.889.889,0,0,0,.745.645c.323.042.646.087.961.134a.1.1,0,0,1,.081.1V9.26Z" data-name="Path 14"/></g></g><g id="Group_764" data-name="Group 764" transform="translate(4.81 4.81)"><g id="Group_763" data-name="Group 763"><path id="Path_15" fill="#fff" d="M148.556,144.866a3.69,3.69,0,1,0,3.69,3.69A3.694,3.694,0,0,0,148.556,144.866Zm0,6.586a2.9,2.9,0,1,1,2.9-2.9A2.9,2.9,0,0,1,148.556,151.452Z" data-name="Path 15" transform="translate(-144.866 -144.866)"/></g></g></g><g id="Group_902" data-name="Group 902" transform="translate(-470 -328)"><rect id="Rectangle_40" width="18" height="18" fill="#fff" data-name="Rectangle 40" opacity="0" transform="translate(8484 222)"/></g></g></svg>