<svg xmlns="http://www.w3.org/2000/svg" width="18" height="18" viewBox="0 0 18 18"><g id="Group_904" data-name="Group 904" transform="translate(-8366 -185)"><rect id="Rectangle_41" width="18" height="18" fill="#fff" data-name="Rectangle 41" opacity="0" transform="translate(8366 185)"/><g id="download" transform="translate(8357 177.6)"><g id="Group_772" data-name="Group 772" transform="translate(11 9.4)"><path id="Path_19" fill="#fff" d="M24.672,319a.593.593,0,0,0-.594.594v3.514H12.188v-3.514a.594.594,0,1,0-1.188,0V323.7a.593.593,0,0,0,.594.594H24.672a.593.593,0,0,0,.594-.594v-4.111A.593.593,0,0,0,24.672,319Z" data-name="Path 19" transform="translate(-11 -309.986)"/><path id="Path_20" fill="#fff" d="M115.094,19.395a.586.586,0,0,0,.841,0l3.616-3.613a.595.595,0,1,0-.841-.841l-2.6,2.6V9.994a.594.594,0,1,0-1.188,0v7.543l-2.6-2.6a.595.595,0,0,0-.841.841Z" data-name="Path 20" transform="translate(-108.38 -9.4)"/></g></g></g></svg>