<svg xmlns="http://www.w3.org/2000/svg" width="18" height="18" viewBox="0 0 18 18"><g id="whatsapp" transform="translate(-139 -300)"><rect id="Rectangle_50" width="18" height="18" fill="none" data-name="Rectangle 50" transform="translate(139 300)"/><path id="Icon_awesome-whatsapp" fill="#fff" d="M10.338,4.017A6.027,6.027,0,0,0,.855,11.288L0,14.409l3.194-.839a6.007,6.007,0,0,0,2.88.733h0a6.083,6.083,0,0,0,6.082-6.025,6.049,6.049,0,0,0-1.821-4.261ZM6.077,13.288a5,5,0,0,1-2.551-.7l-.182-.109-1.894.5.5-1.848-.119-.19a5.018,5.018,0,1,1,9.307-2.663,5.064,5.064,0,0,1-5.065,5.01ZM8.824,9.537c-.149-.076-.89-.44-1.029-.489s-.239-.076-.339.076-.388.489-.478.592-.176.114-.326.038A4.1,4.1,0,0,1,4.6,7.963c-.155-.266.155-.247.442-.822a.279.279,0,0,0-.014-.263c-.038-.076-.339-.817-.464-1.118s-.247-.252-.339-.258S4.041,5.5,3.941,5.5a.558.558,0,0,0-.4.187A1.692,1.692,0,0,0,3.013,6.94,2.949,2.949,0,0,0,3.626,8.5,6.728,6.728,0,0,0,6.2,10.772a2.946,2.946,0,0,0,1.808.377,1.542,1.542,0,0,0,1.015-.717,1.259,1.259,0,0,0,.087-.717C9.073,9.649,8.973,9.611,8.824,9.537Z" data-name="Icon awesome-whatsapp" transform="translate(142 301)"/></g></svg>