<svg xmlns="http://www.w3.org/2000/svg" width="29.232" height="28.502" viewBox="0 0 29.232 28.502">
  <path id="Icon_awesome-github" data-name="Icon awesome-github" d="M9.777,23.512c0,.118-.136.212-.306.212-.194.018-.33-.077-.33-.212,0-.118.136-.212.306-.212C9.624,23.282,9.777,23.377,9.777,23.512Zm-1.833-.265c-.041.118.077.253.253.289a.276.276,0,0,0,.365-.118c.035-.118-.077-.253-.253-.306A.3.3,0,0,0,7.945,23.247Zm2.6-.1c-.171.041-.289.153-.271.289.018.118.171.194.348.153s.289-.153.271-.271S10.72,23.129,10.55,23.147ZM14.428.563A14.132,14.132,0,0,0,0,14.943a14.776,14.776,0,0,0,9.99,14.1c.754.136,1.02-.33,1.02-.713,0-.365-.018-2.381-.018-3.619,0,0-4.126.884-4.992-1.756,0,0-.672-1.715-1.638-2.157,0,0-1.35-.925.094-.908A3.111,3.111,0,0,1,6.73,21.408a3.115,3.115,0,0,0,4.3,1.232,3.276,3.276,0,0,1,.943-1.986c-3.295-.365-6.618-.843-6.618-6.512A4.467,4.467,0,0,1,6.742,10.67a5.568,5.568,0,0,1,.153-4c1.232-.383,4.067,1.591,4.067,1.591a13.923,13.923,0,0,1,7.4,0s2.835-1.98,4.067-1.591a5.566,5.566,0,0,1,.153,4A4.581,4.581,0,0,1,24.1,14.141c0,5.687-3.471,6.141-6.766,6.512a3.485,3.485,0,0,1,1,2.735c0,1.986-.018,4.444-.018,4.927,0,.383.271.849,1.02.713a14.64,14.64,0,0,0,9.889-14.086C29.232,6.768,22.6.563,14.428.563Zm-8.7,20.327c-.077.059-.059.194.041.306.094.094.23.136.306.059.077-.059.059-.194-.041-.306C5.941,20.854,5.805,20.813,5.729,20.889Zm-.637-.477c-.041.077.018.171.136.23a.175.175,0,0,0,.253-.041c.041-.077-.018-.171-.136-.23C5.228,20.335,5.133,20.353,5.092,20.412ZM7,22.51c-.094.077-.059.253.077.365.136.136.306.153.383.059.077-.077.041-.253-.077-.365C7.255,22.434,7.078,22.416,7,22.51Zm-.672-.866c-.094.059-.094.212,0,.348s.253.194.33.136a.269.269,0,0,0,0-.365C6.577,21.626,6.424,21.567,6.33,21.644Z" transform="translate(0 -0.563)" fill="#fff"/>
</svg>
