<svg xmlns="http://www.w3.org/2000/svg" width="21.372" height="24" viewBox="0 0 21.372 24">
  <g id="playstore" transform="translate(-0.5 0)">
    <path id="Path_482" data-name="Path 482" d="M.942,18.855A2.195,2.195,0,0,0,.5,20.187V39.755a2.2,2.2,0,0,0,.384,1.251L11.532,29.9Zm0,0" transform="translate(0 -17.972)" fill="#fff"/>
    <path id="Path_483" data-name="Path 483" d="M45.512,10.912l3.454-3.6L36.824.3a2.187,2.187,0,0,0-1.7-.218Zm0,0" transform="translate(-33.005 0)" fill="#fff"/>
    <path id="Path_484" data-name="Path 484" d="M43.379,276.18,32.891,287.12a2.177,2.177,0,0,0,.694.114,2.208,2.208,0,0,0,1.106-.3l12.229-7.06Zm0,0" transform="translate(-30.873 -263.234)" fill="#fff"/>
    <path id="Path_485" data-name="Path 485" d="M284.721,173.444l-3.55-2.049-3.734,3.895,3.821,3.986,3.463-2a2.212,2.212,0,0,0,0-3.832Zm0,0" transform="translate(-263.956 -163.361)" fill="#fff"/>
  </g>
</svg>
